<?xml version="1.0" encoding="utf-8"?>
<!-- Generator: Adobe Illustrator 22.1.0, SVG Export Plug-In . SVG Version: 6.00 Build 0)  -->
<svg version="1.1" id="Layer_1" xmlns="http://www.w3.org/2000/svg" xmlns:xlink="http://www.w3.org/1999/xlink" x="0px" y="0px"
	 viewBox="0 0 652.52 699.59" style="enable-background:new 0 0 652.52 699.59;" xml:space="preserve">
<style type="text/css">
	.st0{fill:#FFFFFF;}
</style>
<title>Artboard 1 copy 2</title>
<rect x="390.549" y="438.0884" transform="matrix(0.9669 -0.2553 0.2553 0.9669 -120.9315 121.129)" class="st0" width="31.25" height="176.71"/>
<rect x="589.6418" y="382.5374" transform="matrix(0.9659 -0.2589 0.2589 0.9659 -82.5782 170.3153)" class="st0" width="31.3825" height="32.2763"/>
<rect x="214.9529" y="526.3729" transform="matrix(0.9669 -0.2553 0.2553 0.9669 -144.0264 78.5457)" class="st0" width="31.25" height="135.5"/>
<polygon class="st0" points="123.95,552.19 92.12,560.6 81.6,520.75 51.38,528.73 61.91,568.58 30.15,576.96 38.13,607.18 
	69.88,598.79 96.5,699.59 126.71,691.61 100.1,590.81 131.93,582.41 "/>
<path class="st0" d="M139,619.18l17.08,64.66l30.21-8l-17.03-64.64c-5.2741-19.9896,6.6519-40.4705,26.64-45.75l-8-30.21
	c-36.682,9.6748-58.5757,47.2545-48.9009,83.9365C138.9994,619.1777,138.9997,619.1788,139,619.18z"/>
<path class="st0" d="M305.05,504.31c-36.6767,9.6887-58.5589,47.2708-48.88,83.95l27.19,103l30.22-8l-9.66-36.56l36.2-9.56l0,0
	c36.5725-10.0809,58.0483-47.9009,47.9674-84.4734c-9.9271-36.0146-46.8166-57.4926-83.0374-48.3466V504.31z M332.14,606.91
	L332.14,606.91L296,616.47l-9.56-36.19l0,0c-5.2856-19.9905,6.635-40.481,26.6256-45.7666s40.481,6.635,45.7666,26.6256
	c5.2856,19.9905-6.6351,40.481-26.6256,45.7666c-0.0056,0.0015-0.0111,0.0029-0.0166,0.0044H332.14z"/>
<path class="st0" d="M592.84,428.4L620,531.3l0,0c5.2791,19.9866-6.6438,40.4684-26.6304,45.7474
	c-0.0032,0.0009-0.0064,0.0017-0.0096,0.0026l8,30.22c36.6767-9.6887,58.5589-47.2708,48.88-83.95l-27.17-102.9L592.84,428.4z"/>
<path class="st0" d="M482.71,456.49c-36.5725,10.0811-58.048,47.9012-47.967,84.4737c9.9272,36.0143,46.8164,57.4921,83.037,48.3463
	l0,0l37.22-9.83l-8-30.22l-37.2,9.84l0,0c-14.7134,3.8848-30.3139-1.5276-39.46-13.69L570.26,519l-3.6-13.66l0,0
	C556.958,468.6754,519.3801,446.8091,482.71,456.49z M463.71,514.84c4.4439-20.1887,24.4126-32.9524,44.6013-28.5085
	c7.6291,1.6793,14.5415,5.7034,19.7687,11.5085L463.71,514.84z"/>
<path class="st0" d="M244,449.07c-16.3-2.64-31.76-7.12-45.63-16.34c-11.82-7.86-19.13-18.94-24.58-31.89
	c-15.15-36-30.83-71.82-46.3-107.71c-0.81-1.89-2.74-4.13-0.24-5.77c2.5-1.64,3.89,1,5.24,2.52
	c22.58,25.3734,45.1367,50.7633,67.67,76.17c11.9533,13.4333,23.9533,26.83,36,40.19c1,1.14,1.89,3.21,3.87,2.53
	c1.53-0.52,1.52-2.42,1.92-3.83c9.8933-35.3867,19.7833-70.7733,29.67-106.16c1.7-6.09,3.38-6.61,7.82-2.26
	c25.7133,25.1667,51.4067,50.3466,77.08,75.54c0.83,0.82,1.64,1.65,2.46,2.48c2.67,2.71,4.1,2,4.82-1.58
	c2.6667-13.3733,5.3933-26.7334,8.18-40.08c7.78-37.7667,15.57-75.5367,23.37-113.31c0.14-0.65,0.48-1.26,0.56-1.91
	c0.21-1.66,0.76-2.92,2.7-2.94s2.33,1.46,2.52,3c1.25,10.07,2.55,20.13,3.78,30.2c3.2333,26.42,6.44,52.84,9.62,79.26
	c1.63,13.65,4.68,27.26-0.75,40.89c-5.9999,14.9053-15.5337,28.1283-27.78,38.5299c-29.29,25.46-64.15,37.61-102.06,42.61
	C271.47,450.44,254.75,450.81,244,449.07z"/>
<path class="st0" d="M155,0c5.34,2.12,7.71,6.47,9.63,11.63c13.62,36.76,27.3767,73.4733,41.27,110.14
	c1.27,3.38,0.93,4.84-2.66,6.12c-9.07,3.24-9,3.41-12.8-5.43C175.6333,88.3133,160.82,54.16,146,20c-4.77-11-4.47-12.4,4-20H155z"/>
<path class="st0" d="M0,229c3.25-6.73,8.72-8.28,15.87-8.05c28.1,0.89,56.22,1.35,84.34,1.86c2.81,0.05,3.89,0.5,4.07,3.77
	c0,0.48,0.09,1,0.16,1.49c1.34,10.46,1.34,10.45-9.54,10.76c-26.44,0.76-52.89,1.33-79.32,2.44C8.31,241.58,3,240,0,233V229z"/>
<path class="st0" d="M296.89,131.9c-0.85,11.38-1.61,22.6-11.44,30.33s-20.9,4.26-31.88,2.86c3.28,3,6.64,5.72,9.47,9
	c9.14,10.58,9.34,19.52,0.6,30.33c-3.63,4.49-8,8.26-12.51,12.47c5.49,0.48,10.19-1.61,15.14-1.9c20.65-1.23,27.81,4.16,31.89,24.31
	c0.36,1.79,0.74,3.58,1.22,5.92c2.37-5.82,3.36-11.56,5.82-16.82c5.69-12.14,13.49-15.93,26.75-12.64c4,1,7.92,2.13,12.5,3.37
	c-2.33-5.53-4.84-10.32-5.68-15.74c-1.15-7.38,1-11.86,7.75-15.57c6.28-3.42,13.27-5.18,21.06-8.73c-6.2-0.7-11.21,0-16.1-1
	c-7.94-1.62-10.54-6.45-6.21-13.23c6.37-9.94,15.53-17.28,24.35-24.89c2.13-1.84,3.29-0.2,4.57,1.07
	c13.26,13.14,16.82,28.7,11,46.28c-5.27,16-15.92,28.37-28.43,39.13c-29,24.91-63.2,39-100,47.42
	c-18.3432,4.3286-37.1561,6.3442-56,6c-20.95-0.49-41.49-3.36-60.53-12.91c-10.78-5.4-19.95-12.66-25.72-23.57
	c-2.75-5.2-2.39-5.83,3.28-6c18.31-0.57,36.63-1.06,54.94-1.73c2.127-0.1478,4.1931,0.7473,5.54,2.4
	c4.3734,4.5369,11.5965,4.6695,16.1335,0.2962s4.6695-11.5965,0.2962-16.1335c-4.3733-4.5369-11.5965-4.6695-16.1335-0.2962
	c-0.0458,0.0441-0.0911,0.0886-0.1362,0.1335c-2.23,2.35-4.46,2.88-7.44,2.81c-18.66-0.45-37.31-0.91-56-1c-4.77,0-5.57-1.86-4.84-6
	c2.61-14.82,10.2-27,20.2-37.77c17.74-19.19,39.68-32.18,63.35-42.6c2.59-1.14,3.8-0.68,4.88,1.93c3.38,8.15,6.93,16.23,10.54,24.27
	c0.6815,1.4998,0.5806,3.2391-0.27,4.65c-3,6.65-0.64,13,5.67,15.82c5.741,2.4892,12.4128-0.1468,14.9021-5.8878
	c0.0405-0.0935,0.0798-0.1876,0.1178-0.2822c2.56-6-0.17-12.45-6.63-15.06c-1.8949-0.5902-3.386-2.0626-4-3.95
	c-2.88-8-5.82-15.94-9-23.81c-1.21-3-0.31-4,2.51-4.94c36.74-11.82,74.08-17.53,112.6-11.12c4.74,0.78,9.38,2.07,14.07,3.14
	c2.16,0.5,3.36,1.19,1.44,3.58c-6.67,8.31-13.3,16.67-21.62,23.44c-6.26,5.09-11.46,4.11-15.58-2.86
	c-1.2718-2.3356-2.407-4.743-3.4-7.21C298.89,136.77,297.91,134.33,296.89,131.9z"/>
<path class="st0" d="M307.78,195c-6.6218,0.2734-12.2115-4.8729-12.4849-11.4947c-0.002-0.0484-0.0037-0.0969-0.0051-0.1453
	c-0.23-6.47,4.61-12.18,11.12-12.34c2.6267,0.0109,5.0981-1.2434,6.64-3.37c31.28-36.6667,62.6133-73.3333,94-110
	c3.56-4.15,6.74-8.63,10.9-12.27c4.79-4.18,10.28-4.4,14.21-0.39c4.14,4.21,4.33,10.14,0.13,14.77c-5.81,6.4-11.84,12.62-17.79,18.9
	c-21.4133,22.58-42.8333,45.16-64.26,67.74c-9.5,10-19.01,20-28.53,30c-1.48,1.55-2.49,2.75-2.09,5.48
	C320.62,188.85,314.75,194.91,307.78,195z"/>
</svg>
